<svg width="48" height="48" viewBox="0 0 48 48" fill="none" xmlns="http://www.w3.org/2000/svg">
<g clip-path="url(#clip0_703_2513)">
<path d="M7.3184 20.8762C6.485 21.1901 6.47945 18.0871 6.6468 17.1751C6.75449 15.248 7.16652 13.421 7.86812 11.7449C8.9657 9.12269 12.0045 6.62577 14.1865 4.88627C15.5854 3.77111 17.2288 3.0669 18.9521 2.54558C22.1744 1.57079 25.3725 1.69986 28.5931 2.5628C30.0358 2.94938 31.4039 3.49598 32.7418 4.13892C33.466 4.48702 34.0561 4.11597 33.88 4.88C33.8301 5.09654 33.8593 4.6608 33.88 4.88C33.8955 5.04344 34.679 4.86774 34.8735 4.88C35.0827 4.89318 33.8917 6.27409 33.8992 6.08412C33.9095 5.82273 33.9074 5.56086 33.9053 5.2978C33.9045 5.18883 33.9036 5.07965 33.9036 4.97022C34.5386 5.16235 34.611 5.27903 34.5807 5.88043C34.553 6.43116 35.8097 5.28843 35.8 5.84L37.8418 7.53442C37.8394 7.65808 36.6801 5.4173 34.5693 8.21369C34.6059 8.37338 35.6123 5.35763 35.8 5.36C36.0024 5.36256 35.1218 8.36158 35.1486 8.2012C35.2094 7.83556 35.1688 7.47307 35.1284 7.11092C35.1119 6.96342 35.0954 6.81598 35.0857 6.66841C35.0721 6.45897 35.0774 6.27241 35.1748 6.0498C35.7573 6.23611 36.1301 6.6652 36.4866 7.07549C36.5513 7.1499 36.6154 7.22368 36.6801 7.29529C38.0181 8.77578 39.139 10.4208 39.7943 12.3181C40.5065 14.38 40.9859 16.4962 40.6105 18.7031C40.3731 20.0993 39.8297 21.3924 39.2343 22.6712C38.473 24.3058 37.5275 25.8214 36.5239 27.3167C36.2463 27.7303 35.968 28.1435 35.6898 28.5567C34.8009 29.8775 33.9116 31.1985 33.0411 32.5312C31.4075 35.0317 29.5607 37.3595 27.5475 39.5619C26.5465 40.6571 25.5358 41.742 24.4784 42.7826C23.9928 43.2605 23.2607 44.242 22.777 43.782C21.407 42.479 21.1614 41.8559 19.96 40.4C19.4964 39.8382 18.1587 38.8592 17.6863 38.3045C16.8128 37.2791 15.867 36.6699 15.05 35.6C14.5184 37.296 13.8401 33.2081 13.4494 32.7092C12.2515 31.1793 10.7402 29.5599 9.72086 27.9003C8.18617 25.4016 6.76867 23.8779 7.3184 20.8762C6.15531 21.5564 6.09707 20.5622 7.3184 20.8762Z" fill="#FF912B"/>
<path d="M42.2204 25.5979C42.2203 23.8255 42.2203 22.1 42.2203 20.3745C42.1709 20.3624 42.1215 20.3504 42.0721 20.3383C41.8907 20.8038 41.6789 21.26 41.5335 21.7365C41.0482 23.327 40.3751 24.8387 39.5953 26.2994C39.0218 27.3735 38.1984 28.2854 37.5002 29.2795C35.7678 31.7458 34.0288 34.2074 32.284 36.665C32.043 37.0045 31.9138 37.2856 32.3221 37.6025C32.505 37.7445 32.5688 37.9967 32.5865 38.2373C32.5995 38.4137 32.5699 38.6896 32.4515 38.7045C32.01 38.7603 31.8608 39.2087 31.4852 39.3401C31.0438 39.4946 30.734 39.283 30.4229 38.9878C29.6125 39.943 28.8784 40.9298 28.0168 41.8069C27.6338 42.1967 27.2668 42.6022 26.8914 42.9996C26.5601 43.3504 26.2031 43.6773 26.0866 44.182C26.0416 44.3774 25.8839 44.5284 25.7342 44.6704C25.3492 45.0355 24.9661 45.4028 24.5881 45.7752C23.8096 46.5422 23.0182 46.5391 22.2169 45.7729C20.9432 44.5551 19.6905 43.3196 18.5299 41.9893C17.1857 40.4487 15.7077 39.0191 14.49 37.3752C13.356 35.8443 12.157 34.3642 11.0341 32.8256C10.5936 32.222 10.1202 31.6424 9.66138 31.0513C9.33759 31.2493 9.1439 31.3555 9.16088 30.796C9.1727 30.4067 8.87384 30.0487 8.66977 29.6986C7.96116 28.4828 7.31985 27.232 6.75843 25.9425C5.59746 23.2758 4.95918 20.4993 5.00203 17.5751C5.02959 15.6943 5.41923 13.9004 6.08684 12.1449C7.34793 8.82883 9.5584 6.22218 12.1391 3.8799C13.8716 2.3075 15.8717 1.22841 18.1426 0.67005C20.9589 -0.0224199 23.7843 -0.229663 26.6738 0.293335C28.8576 0.688591 30.9522 1.31457 32.9641 2.21597C34.6568 2.97434 36.064 4.15414 37.2818 5.53356C39.1262 7.62282 40.5901 9.9549 41.5191 12.5994C41.9245 13.7537 42.1607 14.9449 42.2632 16.1632C42.2748 16.3011 42.2846 16.4391 42.2938 16.5578C42.4421 16.6751 42.5565 16.5855 42.6681 16.5501C43.6341 16.2439 44.6041 16.9098 44.7004 17.939C44.7764 18.7508 44.5371 19.4898 44.1471 20.1745C43.9455 20.5286 43.8254 20.8707 43.8359 21.2762C43.8509 21.8538 43.8431 22.4321 43.8355 23.0101C43.8331 23.1861 43.8824 23.391 43.5637 23.5595C43.5137 22.3363 43.5665 21.1427 43.1189 20.0265C43.0148 20.0484 43.0238 20.1367 43.0224 20.2077C42.9898 21.8439 42.8814 23.4786 42.7775 25.1093C42.6768 26.6882 42.9143 28.2629 42.7263 29.833C42.6201 30.7201 42.657 31.6104 42.6118 32.4984C42.6054 32.6231 42.6068 32.7492 42.5867 32.8717C42.5668 32.9934 42.5411 33.1414 42.3658 33.1092C42.2282 33.0839 42.1399 32.9695 42.161 32.8347C42.5356 30.4406 42.3207 28.0423 42.2204 25.5979ZM7.08463 17.0079C6.89756 18.0275 7.12749 19.0164 7.30809 20.0083C7.83469 22.9003 8.90559 25.5843 10.4403 28.083C11.7921 30.2839 13.4586 32.2575 15.0215 34.304C16.2805 35.9526 17.6732 37.4954 18.9939 39.0958C20.1954 40.5517 21.5281 41.8978 22.8981 43.2008C23.3818 43.6608 23.4328 43.6605 23.9184 43.1826C24.9758 42.142 25.9865 41.0571 26.9875 39.9619C29.0007 37.7595 30.8475 35.4317 32.4811 32.9312C33.6241 31.1815 34.7991 29.452 35.9638 27.7167C36.9674 26.2214 37.913 24.7058 38.6743 23.0712C39.2698 21.7924 39.8131 20.4993 40.0506 19.1031C40.4259 16.8962 39.9464 14.78 39.2344 12.7181C38.5791 10.8208 37.4581 9.17578 36.12 7.69529C35.6984 7.22882 35.3029 6.66989 34.6148 6.44981C34.5174 6.67241 34.5121 6.85897 34.5258 7.06841C34.5591 7.57831 34.6742 8.08664 34.5885 8.6012C34.5618 8.76158 34.5159 8.92272 34.3135 8.92016C34.1258 8.91778 34.0459 8.77339 34.0093 8.61369C33.9816 8.49295 33.9655 8.36616 33.9679 8.2425C33.9802 7.58834 33.9878 6.93371 34.0207 6.28043C34.051 5.67903 33.9786 5.56235 33.3435 5.37022C33.3435 5.74382 33.3538 6.11446 33.3393 6.48412C33.3318 6.67409 33.2212 6.82051 33.0121 6.80733C32.8175 6.79507 32.7734 6.63089 32.7579 6.46745C32.7372 6.24825 32.759 6.03384 32.809 5.8173C32.9851 5.05327 32.9059 4.88702 32.1817 4.53893C30.844 3.89598 29.4758 3.34938 28.0331 2.9628C24.8126 2.09986 21.6144 1.97079 18.3921 2.94559C16.6688 3.4669 15.0253 4.1711 13.6265 5.28627C11.4445 7.02577 9.62044 9.08843 8.52289 11.7106C7.82134 13.3868 7.19229 15.0809 7.08463 17.0079Z" fill="#27262B"/>
<path d="M24.1757 22.4675C24.3461 22.9439 24.4849 23.3935 24.5204 23.8619C24.5739 24.5696 24.0253 25.0035 23.4273 24.7466C23.0938 24.6033 22.9102 24.1519 23.0441 23.7018C23.1683 23.2841 23.3313 22.8775 23.4881 22.4701C23.5574 22.29 23.5605 22.0159 23.8029 22.0006C24.0528 21.985 24.0712 22.2617 24.1757 22.4675Z" fill="#27262B"/>
<path d="M24.0475 23.6857C23.8984 23.1289 24.1369 22.6519 24.2623 22.1643C24.3265 21.9143 24.5226 21.9799 24.6345 22.1596C24.864 22.5281 24.9553 22.9379 24.8737 23.3649C24.8088 23.705 24.4668 23.84 24.0475 23.6857Z" fill="#27262B"/>
<path d="M24.0076 23.2578C24.1382 22.7493 24.4588 23.1625 24.6803 23.0913C24.8362 23.0412 24.904 23.2238 24.8762 23.378C24.8358 23.6018 24.6915 23.7655 24.4656 23.7332C24.2343 23.7001 23.9498 23.6515 24.0076 23.2578Z" fill="#27262B"/>
<path d="M24.1217 23.0787C24.3031 22.9311 24.3938 23.0096 24.4559 23.1618C24.5201 23.3192 24.4997 23.4637 24.3662 23.5759C24.2902 23.6397 24.1853 23.6565 24.1113 23.5936C23.9326 23.442 23.9938 23.2699 24.1217 23.0787Z" fill="#27262B"/>
<path d="M22.4663 29.1652C22.1808 30.4784 22.1712 31.7704 22.183 33.0644C22.1862 33.4231 22.1781 33.7821 22.1702 34.1409C22.1669 34.2855 22.1501 34.434 21.9569 34.4448C21.7726 34.4552 21.725 34.3206 21.6928 34.1761C21.6894 34.1609 21.6851 34.1451 21.686 34.1298C21.7505 33.1037 21.5244 32.1191 21.2741 31.1351C21.1478 30.6386 21.3005 30.1737 21.5427 29.7423C22.1253 28.7046 22.006 27.6757 21.5222 26.6482C21.4778 26.5539 21.4462 26.4299 21.2989 26.4485C21.1704 26.4647 21.1192 26.5622 21.0885 26.6716C21.0718 26.7312 21.0638 26.7941 21.0585 26.8561C21.0415 27.0562 21.0018 27.2381 20.744 27.2333C20.4357 27.2275 20.4733 26.9925 20.4605 26.7939C20.4474 26.5917 20.4404 26.389 20.4225 26.1873C20.419 26.147 20.3784 26.1099 20.3472 26.0589C20.0451 26.082 19.9038 26.2367 19.9097 26.5388C19.9134 26.726 19.9207 26.916 19.8949 27.1003C19.8651 27.3142 19.9243 27.6011 19.5563 27.602C19.1843 27.603 19.1812 27.3209 19.1659 27.0802C19.1391 26.6599 19.1322 26.237 19.1444 25.8159C19.154 25.4881 19.0547 25.2716 18.6961 25.2192C18.5252 25.3551 18.5977 25.5621 18.5611 25.7351C18.5193 25.9332 18.5314 26.173 18.2484 26.176C17.9223 26.1795 17.9671 25.9059 17.9346 25.6996C17.8827 25.3706 18.0104 25.0107 17.6998 24.6023C17.6998 25.3513 17.6529 25.9947 17.7098 26.6288C17.8178 27.8301 17.7671 29.0307 17.773 30.2318C17.7738 30.3936 17.8114 30.6099 17.5571 30.6247C17.3074 30.6391 17.1457 30.5205 17.1063 30.2539C17.0286 29.7284 17.0185 29.1929 17.0027 28.6693C16.9636 27.365 16.6693 26.0759 16.7892 24.7637C16.8162 24.4687 16.7895 24.1664 16.9107 23.8883C16.9969 23.6903 16.922 23.5254 16.8505 23.3508C16.5009 22.4976 16.1513 21.6383 16.0492 20.7161C15.8353 18.785 16.3162 17.0375 17.5394 15.5144C18.8119 13.9299 20.3383 12.7063 22.3646 12.2322C25.1847 11.5724 27.6759 12.3374 29.7027 14.2897C31.2002 15.7323 31.9049 17.6305 31.7654 19.77C31.685 21.0039 31.392 22.2022 30.725 23.2265C30.0782 24.2198 29.9069 25.2548 29.9623 26.3832C29.9975 27.1001 30.0164 27.8177 30.037 28.5352C30.0432 28.7505 30.0602 28.9776 29.7714 29.1422C29.3411 28.5234 29.6724 27.7971 29.476 27.1694C29.2677 26.5035 29.2412 25.8215 29.2476 24.998C29.0726 25.3069 29.1079 25.5202 29.0931 25.7209C29.07 26.032 29.0551 26.3436 29.0341 26.6549C29.0198 26.8687 28.9222 27.0169 28.6914 27.0203C28.4433 27.024 28.3932 26.8359 28.36 26.6426C28.2962 26.2702 28.398 25.8782 28.2638 25.4939C28.01 25.6064 28.0911 25.8023 28.077 25.957C28.0444 26.3143 28.0273 26.673 28.0026 27.0311C27.9909 27.201 27.9381 27.3573 27.7354 27.3436C27.5438 27.3306 27.4982 27.1714 27.4791 27.0052C27.4408 26.672 27.5168 26.3277 27.4097 25.9744C27.1373 26.0619 27.1641 26.2608 27.1599 26.4382C27.1517 26.7817 27.1529 27.1254 27.1445 27.4689C27.1402 27.6437 27.0766 27.7746 26.8697 27.7703C26.6862 27.7665 26.6365 27.6438 26.6203 27.4913C26.5834 27.1423 26.5468 26.7933 26.4405 26.4384C25.824 27.2 26.3564 28.1772 25.9809 28.9951C25.6806 28.9755 25.5713 28.8228 25.5524 28.5465C25.5216 28.0958 25.461 27.6471 25.4185 27.197C25.3984 26.9835 25.3395 26.8022 25.0938 26.7048C24.9213 26.9481 25.0294 27.2217 24.9864 27.4692C24.959 27.6266 24.9586 27.7926 24.7377 27.7962C24.5241 27.7996 24.4385 27.6704 24.4011 27.4798C24.3478 27.2081 24.4426 26.9195 24.3192 26.661C24.1423 26.5941 24.0661 26.6817 24.0428 26.8228C24.0073 27.0379 23.9847 27.2554 23.9611 27.4724C23.9394 27.6716 23.965 27.9304 23.688 27.9372C23.3806 27.9447 23.3978 27.6675 23.3765 27.4543C23.3625 27.3148 23.3723 27.1731 23.3619 27.033C23.352 26.8979 23.3818 26.7268 23.2014 26.6834C23.0048 26.636 22.9292 26.8001 22.8567 26.9365C22.6557 27.3149 22.5462 27.7167 22.5525 28.1496C22.5572 28.4765 22.5838 28.8068 22.4663 29.1652ZM20.8847 15.186C20.0119 15.6111 19.2574 16.1928 18.7292 17.0083C17.7348 18.5437 17.7565 19.9141 18.6924 21.4342C19.3328 22.4743 20.2832 23.1089 21.4382 23.4866C21.8879 23.6337 22.335 23.7713 22.7358 24.1164C23.0919 24.4231 23.6796 24.4127 24.1792 24.3716C24.6076 24.3364 25.086 24.402 25.4009 23.9815C25.7362 23.5338 26.2676 24.096 26.6257 23.7482C26.6811 23.6943 26.7419 23.6292 26.8116 23.6094C27.2301 23.4906 27.2186 22.9755 27.591 22.7975C28.1848 22.5136 28.6341 22.0314 28.9581 21.4826C29.6391 20.3288 30.1517 19.1298 29.2437 17.837C29.2263 17.8122 29.2202 17.7794 29.2085 17.7505C28.5085 16.0148 27.2115 14.9997 25.3914 14.6725C23.8719 14.3993 22.3806 14.5441 20.8847 15.186Z" fill="#27262B"/>
</g>
<defs>
<clipPath id="clip0_703_2513">
<rect width="48" height="48" fill="white"/>
</clipPath>
</defs>
</svg>
